<svg xmlns="http://www.w3.org/2000/svg" xmlns:xlink="http://www.w3.org/1999/xlink" width="514" height="262" viewBox="0 0 514 262" version="1.1">
    <title>Group 6 Copy</title>
    <g id="Page-1" stroke="none" stroke-width="1" fill="none" fill-rule="evenodd">
        <g id="Artboard" transform="translate(-318.000000, -571.000000)">
            <g id="Group-6-Copy" transform="translate(318.000000, 571.000000)">
                <path d="M149.344955,33.1928271 L234.382856,82.289482 L234.613677,180.513173 L149.434055,229.425122 L64.3961539,180.328467 L64.5241996,82.3119675 L149.344955,33.1928271 Z M279.03297,191.459485 C279.799722,191.459485 280.619354,191.64633 281.518305,192.046711 C282.351157,192.407054 283.012679,192.918742 283.522147,193.601232 L283.686364,193.835081 L283.686364,191.726406 L286.753373,191.726406 L286.753373,213 L283.607045,213 L283.607045,203.844614 C283.10469,204.645377 282.364377,205.232602 281.438986,205.632984 C280.513595,206.006673 279.693963,206.193518 278.953651,206.193518 C276.970671,206.193518 275.304967,205.472831 273.98298,204.004766 C272.660993,202.536702 272,200.801716 272,198.826501 C272,196.904671 272.634554,195.196378 273.930101,193.701621 C275.225648,192.206864 276.944231,191.459485 279.03297,191.459485 Z M149.357385,50.6381325 L79.6158338,91.0240428 L79.5108852,171.615819 L149.455427,211.998319 L219.492293,171.782909 L219.301927,91.0206325 L149.357385,50.6381325 Z M294.160277,191.726406 L294.160277,199.70734 C294.160277,201.842707 295.191426,203.257388 297.280166,203.257388 C299.197047,203.257388 300.446853,201.910505 300.528043,199.867733 L300.532253,199.653956 L300.532253,191.726406 L303.678582,191.726406 L303.678582,205.979981 L300.611573,205.979981 L300.611573,204.058151 C299.527543,205.526215 298.099797,206.273594 296.301895,206.273594 C292.972377,206.273594 291.104209,204.009775 291.017136,200.723664 L291.013948,200.481411 L291.013948,191.726406 L294.160277,191.726406 Z M354.590184,191.726406 L354.590184,199.70734 C354.590184,201.842707 355.621334,203.257388 357.710073,203.257388 C359.626954,203.257388 360.87676,201.910505 360.957951,199.867733 L360.962161,199.653956 L360.962161,191.726406 L364.108489,191.726406 L364.108489,205.979981 L361.04148,205.979981 L361.04148,204.058151 C359.957451,205.526215 358.529705,206.273594 356.731803,206.273594 C353.402284,206.273594 351.534116,204.009775 351.447043,200.723664 L351.443855,200.481411 L351.443855,191.726406 L354.590184,191.726406 Z M313.465062,191.432793 C316.109035,191.432793 317.880498,192.393708 318.753009,194.342231 C319.035033,194.982841 319.191713,195.728901 319.223049,196.580412 L319.228924,196.904671 L319.228924,205.979981 L316.135475,205.979981 L316.135475,204.031459 C315.262964,205.499523 313.888098,206.22021 311.984437,206.22021 C310.60957,206.22021 309.472661,205.819828 308.57371,205.045758 C307.734689,204.323292 307.287212,203.39156 307.231277,202.272264 L307.225284,202.029552 L307.225284,201.869399 C307.225284,198.636553 310.453992,197.568234 312.920105,197.520294 L313.094905,197.518589 L314.839928,197.518589 C315.712439,197.518589 316.161915,197.118208 316.161915,196.317445 C316.161915,195.142993 315.157205,194.182078 313.385743,194.182078 C311.84972,194.182078 310.697403,194.859972 309.974471,196.238819 L309.869258,196.450906 L307.463241,195.062917 C308.57371,192.633937 310.58313,191.432793 313.465062,191.432793 Z M430.596874,191.432793 C432.632733,191.432793 434.377756,192.126787 435.831942,193.541468 C437.286127,194.956149 438,196.691134 438,198.773117 C438,200.881792 437.286127,202.64347 435.831942,204.084843 C434.404196,205.499523 432.659173,206.22021 430.570434,206.22021 C428.508134,206.22021 426.736672,205.499523 425.282487,204.084843 C423.828301,202.670162 423.114428,200.908484 423.114428,198.826501 C423.114428,196.744519 423.854741,194.982841 425.308926,193.56816 C426.763112,192.15348 428.534574,191.432793 430.596874,191.432793 Z M344.645066,187.322212 L344.645066,191.726406 L348.108671,191.726406 L348.108671,194.582459 L344.645066,194.582459 L344.645066,200.881792 C344.645066,202.590086 345.464698,203.257388 347.077522,203.257388 C347.315479,203.257388 347.568309,203.242374 347.824857,203.201084 L348.082232,203.15062 L348.082232,205.84652 C347.579877,206.033365 346.998202,206.140133 346.390089,206.140133 C343.380246,206.140133 341.596867,204.57347 341.502667,201.636829 L341.498737,201.388942 L341.498737,194.582459 L338.907643,194.582459 L338.907643,191.726406 L341.498737,191.726406 L341.498737,187.322212 L344.645066,187.322212 Z M410.38936,201.442326 C411.684908,201.442326 412.689618,202.483317 412.689618,203.79123 C412.689618,205.07245 411.658468,206.113441 410.38936,206.113441 C409.120253,206.113441 408.089103,205.045758 408.089103,203.79123 C408.089103,202.483317 409.120253,201.442326 410.38936,201.442326 Z M385.078978,191.406101 C388.406516,191.406101 390.123447,193.641821 390.20522,196.923522 L390.208287,197.171592 L390.208287,205.979981 L387.061958,205.979981 L387.061958,197.945663 C387.061958,195.783603 386.136567,194.422307 384.047828,194.422307 C382.182064,194.422307 381.008081,195.76919 380.931889,197.811962 L380.927939,198.025739 L380.927939,205.979981 L377.80805,205.979981 L377.80805,197.972355 C377.80805,195.836988 376.85622,194.422307 374.76748,194.422307 C372.927275,194.422307 371.754144,195.794132 371.67798,197.838567 L371.674031,198.052431 L371.674031,205.979981 L368.527703,205.979981 L368.527703,191.726406 L371.594712,191.726406 L371.594712,193.648236 C372.705181,192.15348 374.106487,191.406101 375.79863,191.406101 C377.83449,191.406101 379.288676,192.180172 380.161187,193.755005 C381.615372,192.15348 382.990239,191.406101 385.078978,191.406101 Z M330.866186,191.432793 C334.247325,191.432793 336.06633,193.671176 336.151033,196.956075 L336.154133,197.198284 L336.154133,205.979981 L333.007805,205.979981 L333.007805,197.999047 C333.007805,195.86368 331.976655,194.448999 329.887916,194.448999 C327.971035,194.448999 326.721228,195.795882 326.640038,197.838654 L326.635828,198.052431 L326.635828,205.979981 L323.489499,205.979981 L323.489499,191.726406 L326.556509,191.726406 L326.556509,193.648236 C327.640538,192.180172 329.068284,191.432793 330.866186,191.432793 Z M405.097636,191.726406 L405.097636,194.262154 L397.324353,203.204004 L405.124076,203.204004 L405.124076,205.979981 L393.490591,205.979981 L393.490591,203.337464 L401.158115,194.502383 L393.702109,194.502383 L393.702109,191.726406 L405.097636,191.726406 Z M419.699925,191.726406 L419.699925,205.979981 L416.553596,205.979981 L416.553596,191.726406 L419.699925,191.726406 Z M316.135475,199.760724 L313.094905,199.760724 C312.433912,199.760724 311.799358,199.947569 311.217684,200.294566 C310.66245,200.641563 310.371613,201.122021 310.371613,201.735939 C310.371613,202.910391 311.270564,203.684461 312.61899,203.684461 C314.689222,203.684461 316.042966,202.437348 316.130915,200.425338 L316.135475,200.21449 L316.135475,199.760724 Z M430.570434,194.315539 C429.327766,194.315539 428.296617,194.742612 427.503424,195.623451 C426.736672,196.477598 426.340076,197.518589 426.340076,198.773117 C426.340076,200.027645 426.736672,201.095329 427.529864,202.00286 C428.323056,202.883699 429.354206,203.337464 430.596874,203.337464 C431.839541,203.337464 432.870691,202.910391 433.637443,202.029552 C434.404196,201.148713 434.800792,200.08103 434.800792,198.826501 C434.800792,197.571973 434.404196,196.50429 433.611004,195.623451 C432.844251,194.742612 431.813102,194.315539 430.570434,194.315539 Z M279.429566,194.315539 C278.186898,194.315539 277.155749,194.742612 276.362557,195.623451 C275.595804,196.50429 275.199208,197.571973 275.199208,198.826501 C275.199208,200.08103 275.595804,201.148713 276.362557,202.029552 C277.155749,202.883699 278.186898,203.310772 279.429566,203.310772 C280.672234,203.310772 281.703383,202.883699 282.470136,202.029552 C283.263328,201.148713 283.659924,200.08103 283.659924,198.826501 C283.659924,197.571973 283.263328,196.50429 282.470136,195.623451 C281.676944,194.742612 280.672234,194.315539 279.429566,194.315539 Z M193.52559,90.4535697 L208.627502,90.5077817 L208.362103,164.440186 L144.467462,201.63623 L136.869557,188.584697 L193.291331,155.738104 L193.52559,90.4535697 Z M419.567726,185.64061 C420.387358,186.468065 420.387358,187.749285 419.567726,188.57674 C418.748094,189.404194 417.478987,189.404194 416.659355,188.57674 C415.839723,187.749285 415.839723,186.468065 416.659355,185.64061 C417.478987,184.786463 418.748094,184.786463 419.567726,185.64061 Z M308.08,76 C321.64,76 333.04,80.68 342.4,89.92 C351.88,99.16 356.56,110.56 356.56,124 C356.56,134.217872 353.686301,143.401213 348.051407,151.550023 L347.68,152.08 L356.8,160 L344.92,173.8 L334.72,164.56 C326.44,169.96 317.44,172.72 307.6,172.72 C294.04,172.72 282.52,168.04 273.04,158.8 C263.68,149.44 259,138.04 259,124.48 C259,111.04 263.8,99.64 273.28,90.16 C282.88,80.68 294.52,76 308.08,76 Z M435.95,78 L435.95,94.3320562 L390.566667,152.375479 L436.883333,152.375479 L437,170 L367,170 L367,153.197957 L412.5,95.6245211 L368.866667,95.6245211 L368.866667,78 L435.95,78 Z M133.102545,64.3426484 L146.181269,71.8936529 L96.533414,157.88626 L83.4546905,150.335255 L133.102545,64.3426484 Z M307.84,94.72 C299.8,94.72 292.96,97.6 287.32,103.48 C281.68,109.24 278.8,116.2 278.8,124.36 C278.8,132.52 281.68,139.48 287.32,145.36 C292.96,151.24 299.8,154.12 307.84,154.12 C311.849091,154.12 315.748843,153.245289 319.434887,151.600237 L319.96,151.36 L305.08,138.52 L316.96,124.48 L333.04,139 C335.56,134.56 336.76,129.64 336.76,124.36 C336.76,116.32 333.88,109.36 328.24,103.48 C322.6,97.6 315.88,94.72 307.84,94.72 Z" id="Combined-Shape" fill="#FFFFFF" fill-rule="nonzero"/>
                <rect id="Rectangle" x="0" y="0" width="514" height="262"/>
            </g>
        </g>
    </g>
</svg>